<svg version="1.1" id="Layer_1" xmlns="http://www.w3.org/2000/svg" xmlns:xlink="http://www.w3.org/1999/xlink" x="0px" y="0px"
	 width="100%" viewBox="0 0 512 512" enable-background="new 0 0 512 512" xml:space="preserve">
<path fill="#000000" opacity="1.000000" stroke="none" 
	d="
M224.961655,250.695358 
	C250.850037,250.031357 276.249939,249.194763 301.635559,248.337677 
	C315.450958,247.871246 329.379852,247.747437 343.199921,246.056961 
	C349.002838,245.347137 355.170319,247.250824 360.885468,246.279770 
	C368.635193,244.963043 376.256348,249.260056 383.920624,245.963303 
	C385.774719,245.165771 388.229492,245.412003 390.353912,245.653824 
	C402.590240,247.046631 414.896942,245.395813 427.132721,246.600632 
	C428.598816,246.744980 430.091370,246.620270 432.686127,246.620270 
	C429.469940,241.256119 424.972534,238.330963 421.207703,234.964996 
	C416.610077,230.854523 414.837402,224.875763 410.467865,220.675797 
	C408.768219,219.042084 409.792755,216.742325 412.052826,215.882919 
	C415.455658,214.588989 415.690887,212.397202 415.165985,209.132172 
	C414.563599,205.385071 414.219788,201.301773 419.838959,200.388199 
	C422.011841,200.034943 421.360229,197.936600 421.165497,196.233002 
	C420.627167,191.523514 423.473694,189.385025 427.893188,191.241409 
	C432.300110,193.092529 435.659698,196.329483 438.581848,200.047684 
	C443.005219,205.676056 447.390320,211.335663 451.894989,216.898376 
	C453.878815,219.348221 455.941406,221.739380 459.610840,221.764587 
	C462.132080,221.781891 463.325378,223.750870 464.159210,225.836273 
	C466.610809,231.967606 470.161926,236.909225 477.187531,238.222076 
	C477.504700,238.281357 477.869507,238.420319 478.084198,238.644592 
	C483.216003,244.006561 488.644440,249.149582 491.437775,256.280273 
	C492.731384,259.582520 492.314270,262.817352 490.984009,266.000366 
	C490.341766,267.537109 489.276520,269.017151 489.088501,270.604065 
	C487.933716,280.350525 480.314697,284.574066 473.343170,289.357544 
	C472.234436,290.118317 470.837524,290.692841 470.503723,292.031311 
	C468.884277,298.524750 462.486145,301.754913 459.970337,307.640472 
	C459.428925,308.907074 457.908783,309.162048 456.546783,309.400787 
	C454.314392,309.792053 452.150696,310.951141 451.218872,312.817444 
	C448.645630,317.971375 443.111450,319.263824 439.220886,322.657318 
	C437.090332,324.515686 434.811890,323.372070 432.810760,321.973175 
	C430.811829,320.575775 428.974518,319.742065 426.396698,321.080658 
	C421.449341,323.649658 416.903564,322.695892 413.674347,318.312378 
	C411.755920,315.708160 409.850922,313.996918 406.389191,314.026917 
	C403.437225,314.052551 402.290222,312.108826 403.069611,309.248627 
	C403.992249,305.862640 405.346375,302.848328 407.901093,300.145935 
	C413.161652,294.581329 418.380585,289.009338 424.092163,283.887421 
	C426.444122,281.778259 428.757233,279.702698 431.676300,277.967743 
	C424.552277,275.715149 417.345276,276.048248 410.205505,276.679810 
	C403.529541,277.270325 396.948944,277.915497 390.459381,275.556213 
	C387.281860,274.401031 384.231049,276.111328 381.102417,276.257965 
	C372.342621,276.668518 363.133606,277.569672 354.903992,276.528137 
	C344.320740,275.188782 334.214264,277.442535 323.822937,276.794403 
	C304.350250,275.579834 284.741455,276.407440 265.183289,277.886505 
	C257.204041,278.489960 248.989883,276.951202 240.828110,277.181183 
	C210.222641,278.043640 179.615479,279.277496 149.049988,280.708252 
	C130.226196,281.589417 111.218872,282.730225 92.506744,285.857086 
	C89.884705,286.295258 88.257919,285.575287 87.458824,283.132568 
	C86.535088,280.308838 88.443069,279.287537 90.595398,278.407898 
	C96.621544,275.945007 103.113258,276.991150 109.337067,275.888977 
	C116.696075,274.585815 124.251114,272.703979 131.565292,273.232086 
	C142.284378,274.006012 152.512405,270.119202 163.165222,271.273193 
	C166.013184,271.581696 169.031403,270.418854 171.958038,269.860962 
	C173.588257,269.550232 175.181473,268.802063 176.807312,268.750092 
	C189.567780,268.342041 202.190018,266.236145 214.966644,265.887848 
	C226.107788,265.584137 237.230942,264.608551 248.360367,263.903290 
	C249.848999,263.808929 251.350693,263.633240 253.470688,261.902374 
	C243.619644,262.552948 234.699265,263.162964 225.775879,263.725189 
	C217.516205,264.245667 209.253647,264.720703 200.991592,265.202667 
	C198.996750,265.319031 196.881302,264.986542 195.021606,265.537048 
	C183.549377,268.933075 171.612122,267.999176 159.958939,268.694946 
	C149.924667,269.294037 139.735321,269.805420 129.796783,270.779510 
	C119.938347,271.745789 110.072472,271.453918 100.304886,271.789032 
	C88.982491,272.177490 77.422676,270.886414 66.089088,271.635193 
	C58.084286,272.164093 50.313183,270.017670 42.387440,271.118469 
	C40.543911,271.374512 38.362835,270.811829 37.353630,267.362762 
	C49.587307,263.913757 62.140717,267.161224 75.289726,265.581604 
	C72.222458,263.462708 70.756912,261.517303 72.212013,258.872375 
	C73.721313,256.128937 76.287987,258.183167 78.100548,257.770844 
	C86.804092,255.791000 95.536987,257.942932 104.304901,256.614563 
	C114.557457,255.061249 125.261147,256.498566 135.519577,254.966995 
	C143.174683,253.824127 150.703827,254.493423 158.266266,253.904388 
	C172.565063,252.790695 186.875534,251.240219 201.189667,251.144592 
	C208.953735,251.092728 216.704620,250.053055 224.961655,250.695358 
M321.223175,266.971680 
	C318.661713,267.761139 315.741943,265.823334 313.034668,267.944366 
	C320.854401,269.369324 330.634277,267.663025 333.042511,264.330261 
	C330.014679,268.290009 325.765472,266.402649 321.223175,266.971680 
z"/>
<path fill="#000000" opacity="1.000000" stroke="none" 
	d="
M26.552261,268.836487 
	C25.276735,268.174805 23.741728,268.603790 23.475927,266.621765 
	C26.618607,264.912018 30.011694,265.718597 33.800308,265.590485 
	C32.356216,269.294891 29.803545,269.461395 26.552261,268.836487 
z"/>
</svg>